<svg width="116px" height="116px" viewBox="0 0 116 116" version="1.1" xmlns="http://www.w3.org/2000/svg" xmlns:xlink="http://www.w3.org/1999/xlink">
    <g id="Page-1" stroke="none" stroke-width="1" fill="none" fill-rule="evenodd">
        <g id="Desktop-HD" transform="translate(-209.000000, -296.000000)" fill-rule="nonzero">
            <g id="design-svgrepo-com" transform="translate(209.000000, 296.000000)">
                <polygon id="Path" fill="#16403F" points="29 56 29 87 60 87 53.5349322 80.5349322 35.4650678 80.5349322 35.4650678 62.4650678"></polygon>
                <path d="M112.04554,103.508194 L102.786321,94.1625812 L102.786321,102.576844 L12.4524727,102.576844 L12.4524727,89.2489087 L18.9048904,89.2489087 L18.9048904,84.1104276 L12.4524727,84.1104276 L12.4524727,62.7536157 L18.9048904,62.7536157 L18.9048904,57.6151346 L12.4524727,57.6151346 L12.4524727,37.0612103 L18.9048904,37.0612103 L18.9048904,31.9227293 L12.4524727,31.9227293 L12.4524727,13.970161 L63.8782421,64.8732391 L63.8782421,55.8166662 L11.5168721,3.95012294 C10.5938845,3.0237192 9.19959343,2.74527163 7.98907237,3.24560202 C6.77855132,3.7459324 5.99243262,4.92558305 6,6.23032391 L6,105.788395 C6,107.562085 7.44447785,109 9.22626381,109 L109.754932,109 C111.065628,109.007533 112.250663,108.224986 112.753277,107.019965 C113.255891,105.814944 112.976173,104.426988 112.04554,103.508194 Z" id="Path" fill="#16403F"></path>
                <path d="M77.5,96 L90.5,96 C94.0898509,96 97,93.1311535 97,89.592252 L97,27.7574843 L89.525,14.2050973 C88.347808,12.1945598 86.1596121,10.9689123 83.805,11.0005999 L83.805,11.0005999 C81.3950687,11.0200759 79.1935274,12.3518482 78.085,14.4614072 L71,27.8215617 L71,89.592252 C71,93.1311535 73.9101491,96 77.5,96 Z M77.5,29.3594212 L83.805,17.2808163 L90.5,29.39146 L90.5,76.7767561 L77.5,76.7767561 L77.5,29.3594212 Z M77.5,81.9990707 L90.5,81.9990707 L90.5,89.8165232 L77.5,89.8165232 L77.5,81.9990707 Z" id="Shape" fill="#FFBE40"></path>
                <rect id="Rectangle" fill-opacity="0" fill="#000000" x="0" y="0" width="116" height="116"></rect>
            </g>
        </g>
    </g>
</svg>