<svg width="153px" height="153px" viewBox="0 0 153 153" version="1.1" xmlns="http://www.w3.org/2000/svg" xmlns:xlink="http://www.w3.org/1999/xlink">
    <g id="Page-1" stroke="none" stroke-width="1" fill="none" fill-rule="evenodd">
        <g id="Desktop-HD" transform="translate(-535.000000, -88.000000)" fill="#16403F" fill-rule="nonzero">
            <g id="code-svgrepo-com" transform="translate(535.000000, 88.000000)">
                <path d="M77.265,107.29125 C77.265,108.13275 77.91525,108.82125 78.699375,108.82125 L114.080625,108.82125 C114.86475,108.82125 115.515,108.13275 115.515,107.29125 L115.515,98.11125 C115.515,97.26975 114.86475,96.58125 114.080625,96.58125 L78.699375,96.58125 C77.91525,96.58125 77.265,97.26975 77.265,98.11125 L77.265,107.29125 Z M76.710375,77.666625 C77.437125,77.054625 77.437125,75.92625 76.710375,75.31425 L39.990375,44.542125 C39.5377057,44.1571868 38.9022699,44.0712274 38.3635958,44.3220603 C37.8249218,44.5728933 37.4817337,45.1145478 37.4849541,45.70875 L37.4849541,57.700125 C37.4849541,58.159125 37.67625,58.579875 38.039625,58.86675 L59.038875,76.5 L38.039625,94.13325 C37.6937014,94.4228179 37.4911884,94.8487936 37.4849541,95.299875 L37.4849541,107.29125 C37.4849541,108.59175 38.995875,109.299375 39.990375,108.457875 L76.710375,77.666625 Z M146.88,0 L6.12,0 C2.734875,0 0,2.734875 0,6.12 L0,146.88 C0,150.265125 2.734875,153 6.12,153 L146.88,153 C150.265125,153 153,150.265125 153,146.88 L153,6.12 C153,2.734875 150.265125,0 146.88,0 Z M139.23,139.23 L13.77,139.23 L13.77,13.77 L139.23,13.77 L139.23,139.23 Z" id="Shape"></path>
            </g>
        </g>
    </g>
</svg>