<svg width="79px" height="170px" viewBox="0 0 79 170" version="1.1" xmlns="http://www.w3.org/2000/svg" xmlns:xlink="http://www.w3.org/1999/xlink">
    <g id="Page-1" stroke="none" stroke-width="1" fill="none" fill-rule="evenodd">
        <g id="Desktop-HD" transform="translate(-188.000000, -71.000000)" fill-rule="nonzero">
            <g id="pen-svgrepo-com" transform="translate(188.000000, 71.000000)">
                <path d="M78.9469938,166.75517 L75.314799,148.671149 C75.0601822,147.403021 73.9421926,146.490447 72.643683,146.490447 L68.8563935,146.490447 C67.4220398,143.54366 64.1741313,135.993851 62.8127847,125.643021 C60.4594857,107.748532 64.5584175,90.4034681 74.9955291,74.0888936 C75.6820139,73.0160851 75.5276456,71.6126809 74.6243188,70.7131277 C60.9781631,57.1247021 52.7821157,39.1415957 51.490144,19.9967021 C52.559099,18.0247021 53.120273,15.8190426 53.120273,13.5638298 C53.1206363,6.08455319 47.0105583,0 39.499906,0 C31.9892537,0 25.8791757,6.08455319 25.8791757,13.5638298 C25.8791757,15.8190426 26.4403498,18.0247021 27.5093047,19.9967021 C26.217333,39.1415957 18.0212856,57.1243404 4.37512993,70.7131277 C3.4718031,71.6126809 3.31743482,73.0160851 4.00391963,74.0888936 C14.4410312,90.4034681 18.539963,107.748894 16.186664,125.643021 C14.8249542,135.996021 11.5763192,143.546191 10.1434184,146.490447 L6.35612894,146.490447 C5.05761932,146.490447 3.93962978,147.403021 3.68501293,148.671149 L0.0528181839,166.75517 C-0.106998385,167.552 0.100036716,168.378489 0.617261247,169.007128 C1.134849,169.635404 1.90778004,170 2.7239342,170 L76.2758777,170 C77.0920319,170 77.8649629,169.635404 78.3825507,169.007128 C78.9001384,168.378851 79.1071735,167.552 78.9469938,166.75517 Z M39.499906,69.9188298 C41.0021817,69.9188298 42.224052,71.1355957 42.224052,72.6315957 C42.224052,74.1275957 41.0021817,75.3443617 39.499906,75.3443617 C37.9976302,75.3443617 36.7757599,74.1275957 36.7757599,72.6315957 C36.7757599,71.1355957 37.9976302,69.9188298 39.499906,69.9188298 Z M20.238014,133.830872 L39.499906,133.830149 C41.004361,133.830149 42.224052,132.615553 42.224052,131.117383 C42.224052,129.618851 41.004361,128.404617 39.499906,128.404617 L21.288808,128.40534 C21.3825186,127.811787 21.4729602,127.212809 21.5554111,126.600447 C23.2916002,113.717702 22.5876808,94.1091064 9.74133444,73.0037872 C23.6123229,58.4720426 31.8512303,39.5564681 32.999367,19.4979149 C33.0316936,18.9336596 32.8864058,18.3741064 32.5834807,17.8959362 C31.7618783,16.5988723 31.3274678,15.1007021 31.3274678,13.5634681 C31.3274678,10.0271064 33.6052171,7.01159574 36.7757599,5.89176596 L36.7757599,64.9595319 C33.6052171,66.0793617 31.3274678,69.0948723 31.3274678,72.631234 C31.3274678,77.1185106 34.993442,80.7695319 39.499906,80.7695319 C44.00637,80.7695319 47.6723441,77.1185106 47.6723441,72.631234 C47.6723441,69.0948723 45.3945948,66.0793617 42.224052,64.9595319 L42.224052,5.89176596 C45.3945948,7.01195745 47.6723441,10.0274681 47.6723441,13.5638298 C47.6723441,15.1010638 47.2379337,16.599234 46.4163312,17.8962979 C46.1137694,18.3741064 45.9684816,18.9340213 46.0004449,19.4982766 C47.1485817,39.5568298 55.3871258,58.4724043 69.2584775,73.0041489 C56.4121311,94.1094681 55.7082118,113.718064 57.4444009,126.600809 C57.5268517,127.212809 57.6172934,127.812149 57.711004,128.404979 L50.3964902,128.404979 C48.8920351,128.404979 47.6723441,129.619213 47.6723441,131.117745 C47.6723441,132.616277 48.8920351,133.830511 50.3964902,133.830511 L58.7614347,133.830511 C60.016358,139.285702 61.616703,143.606596 62.8618193,146.490809 L16.1379926,146.490809 C17.3827457,143.606596 18.983454,139.285702 20.238014,133.830872 Z M6.04666595,164.574468 L8.58920227,151.915979 L11.796067,151.915979 C11.8069636,151.915979 70.4102465,151.915979 70.4102465,151.915979 L72.9527828,164.574468 L6.04666595,164.574468 Z" id="Shape" fill="#16403F"></path>
                <path d="M48.9241077,122.99738 C50.4137853,122.926705 51.5643435,121.647271 51.4945036,120.139783 C50.7719847,104.55779 54.2013393,89.3728875 61.6875275,75.0073042 C62.3834064,73.6724958 61.8779672,72.0196505 60.5589293,71.3158159 C59.2406114,70.6123457 57.606934,71.1234636 56.9114151,72.4579077 C48.9691076,87.6978197 45.3320333,103.826268 46.1006321,120.395888 C46.168312,121.85966 47.3624301,123 48.7955879,123 C48.8380678,123 48.8809077,122.999202 48.9241077,122.99738 Z" id="Path" fill="#FFBE40"></path>
            </g>
        </g>
    </g>
</svg>