<svg width="116px" height="116px" viewBox="0 0 116 116" version="1.1" xmlns="http://www.w3.org/2000/svg" xmlns:xlink="http://www.w3.org/1999/xlink">
    <g id="Page-1" stroke="none" stroke-width="1" fill="none" fill-rule="evenodd">
        <g id="Desktop-HD" transform="translate(-728.000000, -123.000000)" fill-rule="nonzero">
            <g id="pencil-svgrepo-com" transform="translate(728.000000, 123.000000)">
                <path d="M81.3196405,11.5215816 L16,76.8866344 L39.0970814,100 L103.120689,35.931881 L116,0 L81.3196405,11.5215816 Z M39.0970814,94.8876761 L21.1087722,76.8866344 L79.2340395,18.7207301 L79.2496543,21.3526428 L84.3459799,21.3324879 L84.3661208,26.4656461 L89.486208,26.4765161 L89.4753455,31.6151094 L94.559677,31.5537388 L94.6207786,36.7276598 L97.2318534,36.7122605 L39.0970814,94.8876761 Z M100.30549,33.0787173 L98.1906958,33.0911726 L98.1295942,27.8948322 L93.0957281,27.9557498 L93.1065906,22.8685629 L87.9647783,22.8576928 L87.9441848,17.7025681 L82.8408439,17.7227229 L82.8254554,15.1268173 L83.2696866,14.6822773 L100.426109,8.98251732 L101.503534,14.3747452 L106.641499,15.403098 L100.30549,33.0787173 Z M104.573097,11.3032746 L103.880159,7.8354998 L110.093739,5.77109471 L107.874167,11.9638571 L104.573097,11.3032746 Z" id="Shape" fill="#16403F"></path>
                <polygon id="Rectangle" fill="#16403F" transform="translate(24.876623, 91.424287) rotate(-135.000000) translate(-24.876623, -91.424287) " points="8.54716573 89.6141113 41.20608 89.6141113 41.20608 93.2344624 8.54716573 93.2344624"></polygon>
                <path d="M2.36648269,90.4442509 C-0.788827564,93.599456 -0.788827564,98.7333838 2.36648269,101.888817 L14.1088567,113.629724 C15.6376479,115.158354 17.6698855,116 19.8317435,116 C21.9936014,116 24.0260668,115.158126 25.5546302,113.629724 L34,105.185245 L10.8120803,82 L2.36648269,90.4442509 Z M22.9834088,111.059002 C22.1416739,111.900876 21.0224738,112.364407 19.8319713,112.364407 C18.6414687,112.364407 17.5222687,111.900648 16.6805337,111.059002 L4.93793184,99.3180944 C3.20001675,97.5805905 3.20001675,94.7529327 4.93793184,93.0154287 L10.8118525,87.1421279 L28.8573295,105.185929 L22.9834088,111.059002 Z" id="Shape" fill="#FFBE40"></path>
            </g>
        </g>
    </g>
</svg>