<svg width="97px" height="104px" viewBox="0 0 97 104" version="1.1" xmlns="http://www.w3.org/2000/svg" xmlns:xlink="http://www.w3.org/1999/xlink">
    <g id="Page-1" stroke="none" stroke-width="1" fill="none" fill-rule="evenodd">
        <g id="Desktop-HD" transform="translate(-535.000000, -296.000000)" fill-rule="nonzero">
            <g id="writing-draw-svgrepo-com" transform="translate(535.000000, 296.000000)">
                <path d="M17.2728391,24 L65.7269566,24 C68.0867244,24 70,22.2091294 70,20.0000956 C70,17.7910619 68.0869288,16 65.7269566,16 L17.2728391,16 C14.9130712,16 13,17.7908706 13,20.0000956 C13,22.2093207 14.9130712,24 17.2728391,24 Z" id="Path" fill="#FFBE40"></path>
                <path d="M17.2152914,38 L53.7847086,38 C56.1126945,38 58,36.2091294 58,33.9999044 C58,31.7906793 56.1126945,30 53.7847086,30 L17.2152914,30 C14.8873055,30 13,31.7908706 13,33.9999044 C13,36.2089381 14.8873055,38 17.2152914,38 Z" id="Path" fill="#FFBE40"></path>
                <path d="M17.2152914,53 L53.7847086,53 C56.1126945,53 58,51.2090866 58,49 C58,46.7909134 56.1126945,45 53.7847086,45 L17.2152914,45 C14.8873055,45 13,46.7909134 13,49 C13,51.2090866 14.8873055,53 17.2152914,53 Z" id="Path" fill="#FFBE40"></path>
                <path d="M39,64 C39,61.7909134 37.1250472,60 34.8122983,60 L17.1877017,60 C14.8749528,60 13,61.7909134 13,64 C13,66.2090866 14.8749528,68 17.1877017,68 L34.812098,68 C37.1248469,68.0001913 39,66.2092779 39,64 Z" id="Path" fill="#FFBE40"></path>
                <path d="M82.7495173,33.2078906 L82.7495173,4.24734375 C82.7495173,1.90165625 80.8469912,0 78.5002309,0 L4.24928635,0 C1.90252601,0 0,1.90165625 0,4.24734375 L0,99.7526563 C0,102.098344 1.90252601,104 4.24928635,104 L78.5002309,104 C80.8469912,104 82.7495173,102.098344 82.7495173,99.7526563 L82.7495173,63.0898125 L93.6328521,52.2114531 L93.6330553,52.21125 C101.811357,44.0356719 93.8858583,30.3357031 82.7495173,33.2078906 Z M74.2509445,95.5051094 L8.49877592,95.5051094 L8.49877592,8.49489063 L74.2509445,8.49489063 L74.2509445,39.4834375 L40.7161294,73.003125 C40.1503708,73.5674063 39.7130458,74.3482188 39.5466104,75.2121094 L37.1126695,87.673625 C36.5999508,90.2965781 38.6138402,92.7348906 41.2833106,92.7348906 C41.8626848,92.7348906 40.9933186,92.8715937 54.582703,90.2197969 C55.4463791,90.0471406 56.2009272,89.6266719 56.7735952,89.0536562 L74.2509445,71.5845 L74.2509445,95.5051094 L74.2509445,95.5051094 Z M87.6236987,46.2044375 C84.4522801,49.3744062 58.7633017,75.0514375 53.7692218,80.0432344 L49.7302659,76.006125 C50.5425279,75.1942344 82.9641154,42.7874687 83.5833203,42.16875 C86.2501489,39.5057813 90.2986559,43.5305 87.6236987,46.2044375 Z" id="Shape" fill="#16403F"></path>
            </g>
        </g>
    </g>
</svg>